<svg width="800" height="694" viewBox="0 0 800 694" fill="none" xmlns="http://www.w3.org/2000/svg">
<path fill-rule="evenodd" clip-rule="evenodd" d="M666.667 53.3333L133.333 53.3344C89.1504 53.3344 53.3333 89.1515 53.3333 133.334V400.001C53.3333 444.181 89.1504 480 133.333 480H400.001C407.074 480 413.857 482.811 418.858 487.813L533.333 602.288V506.667C533.333 491.941 545.275 480 560 480H666.667C710.848 480 746.667 444.181 746.667 400.001V133.333C746.667 89.1504 710.848 53.3333 666.667 53.3333ZM133.333 0.00106812L666.667 0C740.304 0 800 59.6949 800 133.333V400.001C800 473.637 740.304 533.333 666.667 533.333H586.667V666.667C586.667 677.451 580.171 687.173 570.203 691.301C560.24 695.429 548.768 693.147 541.141 685.52L388.956 533.333H133.333C59.6955 533.333 0 473.637 0 400.001V133.334C0 59.6965 59.6949 0.00106812 133.333 0.00106812Z" fill="#FDF3CD"/>
<path d="M572 266.333L313.25 404.897V127.769L572 266.333Z" fill="#FDF3CD"/>
</svg>
