<svg width="800" height="694" viewBox="0 0 800 694" fill="none" xmlns="http://www.w3.org/2000/svg">
<path fill-rule="evenodd" clip-rule="evenodd" d="M666.667 54.0003L133.333 54.0014C89.1504 54.0014 53.3333 89.8185 53.3333 134.001V400.668C53.3333 444.848 89.1504 480.667 133.333 480.667H400.001C407.074 480.667 413.857 483.478 418.858 488.48L533.333 602.955V507.334C533.333 492.608 545.275 480.667 560 480.667H666.667C710.848 480.667 746.667 444.848 746.667 400.668V134C746.667 89.8174 710.848 54.0003 666.667 54.0003ZM133.333 0.66806L666.667 0.666992C740.304 0.666992 800 60.3619 800 134V400.668C800 474.304 740.304 534 666.667 534H586.667V667.334C586.667 678.118 580.171 687.84 570.203 691.968C560.24 696.096 548.768 693.814 541.141 686.187L388.956 534H133.333C59.6955 534 0 474.304 0 400.668V134.001C0 60.3635 59.6949 0.66806 133.333 0.66806Z" fill="#112D3F"/>
<path d="M572 267L313.25 405.564V128.436L572 267Z" fill="#112D3F"/>
</svg>
