<svg width="350" height="350" viewBox="0 0 350 350" fill="none" xmlns="http://www.w3.org/2000/svg">
<path d="M350 175C350 271.65 271.65 350 175 350C78.3502 350 0 271.65 0 175C0 78.3502 78.3502 0 175 0C271.65 0 350 78.3502 350 175ZM18.2945 175C18.2945 261.546 88.4539 331.706 175 331.706C261.546 331.706 331.706 261.546 331.706 175C331.706 88.4539 261.546 18.2945 175 18.2945C88.4539 18.2945 18.2945 88.4539 18.2945 175Z" fill="#112D3F"/>
<rect x="117" y="80" width="41" height="190" fill="#112D3F"/>
<rect x="191" y="80" width="41" height="190" fill="#112D3F"/>
</svg>
