<svg width="350" height="380" viewBox="0 0 350 380" fill="none" xmlns="http://www.w3.org/2000/svg">
<path d="M297 205L114 302.861V107.139L297 205Z" fill="#1A3E1A"/>
<path d="M235.012 40.6117C195.353 26.1334 151.796 26.4809 112.373 41.5901C72.9491 56.6993 40.3169 85.5515 20.4922 122.827C0.667639 160.103 -5.01271 203.289 4.49847 244.424C14.0096 285.558 38.0711 321.867 72.2466 346.657C106.422 371.447 148.408 383.046 190.462 379.316C232.517 375.585 271.805 356.777 301.083 326.359C330.362 295.941 347.657 255.963 349.779 213.797C351.901 171.63 338.708 130.118 312.631 96.914L298.243 108.213C321.594 137.946 333.408 175.119 331.507 212.877C329.607 250.635 314.12 286.434 287.903 313.672C261.685 340.91 226.504 357.752 188.846 361.093C151.188 364.433 113.591 354.047 82.9884 331.848C52.3856 309.65 30.8396 277.137 22.3227 240.302C13.8058 203.468 18.8923 164.797 36.6445 131.418C54.3966 98.0386 83.6175 72.2026 118.92 58.6729C154.222 45.1432 193.225 44.8321 228.739 57.7968L235.012 40.6117Z" fill="#1A3E1A"/>
<path d="M272.445 64.0891L203.855 77.2676L226.339 11.6251L272.445 64.0891Z" fill="#1A3E1A"/>
</svg>
